<?xml version="1.0" encoding="utf-8"?>
<!-- Generator: Adobe Illustrator 22.1.0, SVG Export Plug-In . SVG Version: 6.00 Build 0)  -->
<svg version="1.1" id="Layer_1" xmlns="http://www.w3.org/2000/svg" xmlns:xlink="http://www.w3.org/1999/xlink" x="0px" y="0px"
	 viewBox="0 0 720 640" style="enable-background:new 0 0 720 640;" xml:space="preserve">
<style type="text/css">
	.st0{fill:#10384E;}
	.st1{fill:#FFFFFF;}
	.st2{fill:none;stroke:#FFC354;stroke-width:9.3379;stroke-linecap:round;stroke-linejoin:round;stroke-miterlimit:10;}
	.st3{fill:none;stroke:#BDD5DA;stroke-width:5;stroke-miterlimit:10;}
	.st4{fill:#FFA135;}
	.st5{opacity:0.4;fill:#10384E;}
	.st6{fill:none;stroke:#1C5169;stroke-width:1.1111;stroke-linecap:round;stroke-linejoin:round;stroke-miterlimit:10;}
	.st7{fill:#00B69B;}
	.st8{opacity:0.4;fill:#00B69B;}
	.st9{fill:#FADDC9;}
	.st10{fill:none;stroke:#008E76;stroke-width:1.1111;stroke-linecap:round;stroke-linejoin:round;stroke-miterlimit:10;}
	.st11{font-family:'Cocogoose';}
	.st12{font-size:50.1549px;}
	.st13{fill:#FFC354;}
	.st14{font-family:'Montserrat-SemiBold';}
	.st15{font-family:'COCOGOOSE-DemiBold';}
	.st16{font-size:113.7435px;}
	.st17{letter-spacing:-8;}
	.st18{fill:#5A5A5A;}
	.st19{fill:#FF4522;}
</style>
<g>
	<g>
		<g>
			<path class="st0" d="M556.2,388.5c0.8,15.5-11.2,28.9-26.7,29.7l-407.7,21.7c-15.5,0.8-28.9-11.2-29.7-26.7l-2.6-49.7
				c-0.8-15.5,11.2-28.9,26.7-29.7L523.9,312c15.5-0.8,28.9,11.2,29.7,26.7L556.2,388.5z"/>
			<g>
				<path class="st1" d="M127.5,427.3c-1.9-0.2-3.8-0.5-5.7-1.1l0.4-1.3c1.7,0.6,3.5,0.9,5.4,1.1L127.5,427.3z M133.3,427.2
					l-0.1-1.4l5.6-0.3l0.1,1.4L133.3,427.2z M144.6,426.6l-0.1-1.4l5.6-0.3l0.1,1.4L144.6,426.6z M155.8,426l-0.1-1.4l5.6-0.3
					l0.1,1.4L155.8,426z M167.1,425.4L167,424l5.6-0.3l0.1,1.4L167.1,425.4z M178.4,424.8l-0.1-1.4l5.6-0.3l0.1,1.4L178.4,424.8z
					 M189.7,424.2l-0.1-1.4l5.6-0.3l0.1,1.4L189.7,424.2z M116.6,423.7c-1.6-1-3.2-2.2-4.5-3.6l1-1c1.3,1.3,2.7,2.5,4.3,3.4
					L116.6,423.7z M201,423.6l-0.1-1.4l5.6-0.3l0.1,1.4L201,423.6z M212.3,423l-0.1-1.4l5.6-0.3l0.1,1.4L212.3,423z M223.5,422.4
					l-0.1-1.4l5.6-0.3l0.1,1.4L223.5,422.4z M234.8,421.8l-0.1-1.4l5.6-0.3l0.1,1.4L234.8,421.8z M246.1,421.2l-0.1-1.4l5.6-0.3
					l0.1,1.4L246.1,421.2z M257.4,420.6l-0.1-1.4l5.6-0.3l0.1,1.4L257.4,420.6z M268.7,420l-0.1-1.4l5.6-0.3l0.1,1.4L268.7,420z
					 M280,419.4l-0.1-1.4l5.6-0.3l0.1,1.4L280,419.4z M291.3,418.8l-0.1-1.4l5.6-0.3l0.1,1.4L291.3,418.8z M302.5,418.2l-0.1-1.4
					l5.6-0.3l0.1,1.4L302.5,418.2z M313.8,417.6l-0.1-1.4l5.6-0.3l0.1,1.4L313.8,417.6z M325.1,417l-0.1-1.4l5.6-0.3l0.1,1.4
					L325.1,417z M336.4,416.4l-0.1-1.4l5.6-0.3l0.1,1.4L336.4,416.4z M347.7,415.8l-0.1-1.4l5.6-0.3l0.1,1.4L347.7,415.8z
					 M108.5,415.5c-1-1.7-1.8-3.5-2.4-5.3l1.3-0.4c0.5,1.7,1.3,3.4,2.2,5L108.5,415.5z M359,415.2l-0.1-1.4l5.6-0.3l0.1,1.4
					L359,415.2z M370.2,414.6l-0.1-1.4l5.6-0.3l0.1,1.4L370.2,414.6z M381.5,414l-0.1-1.4l5.6-0.3l0.1,1.4L381.5,414z M392.8,413.4
					l-0.1-1.4l5.6-0.3l0.1,1.4L392.8,413.4z M404.1,412.8l-0.1-1.4l5.6-0.3l0.1,1.4L404.1,412.8z M415.4,412.2l-0.1-1.4l5.6-0.3
					l0.1,1.4L415.4,412.2z M426.7,411.6l-0.1-1.4l5.6-0.3l0.1,1.4L426.7,411.6z M438,411l-0.1-1.4l5.6-0.3l0.1,1.4L438,411z
					 M449.2,410.4l-0.1-1.4l5.6-0.3l0.1,1.4L449.2,410.4z M460.5,409.8l-0.1-1.4l5.6-0.3l0.1,1.4L460.5,409.8z M471.8,409.2
					l-0.1-1.4l5.6-0.3l0.1,1.4L471.8,409.2z M483.1,408.6l-0.1-1.4l5.6-0.3l0.1,1.4L483.1,408.6z M494.4,408l-0.1-1.4l5.6-0.3
					l0.1,1.4L494.4,408z M505.7,407.4l-0.1-1.4l5.6-0.3l0.1,1.4L505.7,407.4z M516.9,406.8l-0.1-1.4l2.4-0.1c1-0.1,2.1-0.2,3.1-0.4
					l0.3,1.4c-1.1,0.2-2.2,0.3-3.3,0.4L516.9,406.8z M528.2,404.5l-0.6-1.3c1.7-0.8,3.2-1.7,4.7-2.9l0.9,1.1
					C531.6,402.7,529.9,403.7,528.2,404.5z M105.1,404.5l-0.3-5.6l1.4-0.1l0.3,5.6L105.1,404.5z M537.2,397.4l-1.1-0.9
					c1.1-1.4,2.1-3,2.8-4.7l1.3,0.6C539.4,394.2,538.4,395.8,537.2,397.4z M104.5,393.2l-0.3-5.6l1.4-0.1l0.3,5.6L104.5,393.2z
					 M542,386.9l-1.4-0.3c0.3-1.4,0.4-2.8,0.4-4.2c0-0.4,0-0.8,0-1.2l1.4-0.1c0,0.4,0,0.9,0,1.3C542.4,383.9,542.3,385.4,542,386.9z
					 M103.9,381.9l-0.3-5.6l1.4-0.1l0.3,5.6L103.9,381.9z M540.7,375.9l-0.3-5.6l1.4-0.1l0.3,5.6L540.7,375.9z M103.3,370.6
					c0-0.4,0-0.7,0-1.1c0-1.6,0.2-3.2,0.5-4.7l1.4,0.3c-0.3,1.4-0.4,2.9-0.4,4.4c0,0.3,0,0.7,0,1L103.3,370.6z M540.1,364.6
					l-0.3-5.6l1.4-0.1l0.3,5.6L540.1,364.6z M106.8,359.9l-1.3-0.6c0.8-1.8,1.8-3.4,3.1-4.9l1.1,0.9
					C108.6,356.7,107.6,358.2,106.8,359.9z M539.5,353.3l-0.3-5.6l1.4-0.1l0.3,5.6L539.5,353.3z M113.6,351.4l-0.9-1.1
					c1.5-1.2,3.2-2.2,5-3l0.6,1.3C116.6,349.3,115,350.3,113.6,351.4z M123.5,346.9l-0.3-1.4c1-0.2,2.1-0.3,3.1-0.4l2.6-0.1l0.1,1.4
					l-2.6,0.1C125.4,346.6,124.5,346.8,123.5,346.9z M134.7,346.1l-0.1-1.4l5.6-0.3l0.1,1.4L134.7,346.1z M146,345.5l-0.1-1.4
					l5.6-0.3l0.1,1.4L146,345.5z M157.2,344.9l-0.1-1.4l5.6-0.3l0.1,1.4L157.2,344.9z M168.5,344.3l-0.1-1.4l5.6-0.3l0.1,1.4
					L168.5,344.3z M179.8,343.8l-0.1-1.4l5.6-0.3l0.1,1.4L179.8,343.8z M191.1,343.2l-0.1-1.4l5.6-0.3l0.1,1.4L191.1,343.2z
					 M202.4,342.6l-0.1-1.4l5.6-0.3l0.1,1.4L202.4,342.6z M538.3,342.3c-0.5-1.7-1.3-3.4-2.2-5l1.2-0.7c1,1.7,1.8,3.5,2.3,5.3
					L538.3,342.3z M213.7,342l-0.1-1.4l5.6-0.3l0.1,1.4L213.7,342z M224.9,341.4l-0.1-1.4l5.6-0.3l0.1,1.4L224.9,341.4z
					 M236.2,340.8l-0.1-1.4l5.6-0.3l0.1,1.4L236.2,340.8z M247.5,340.2l-0.1-1.4l5.6-0.3l0.1,1.4L247.5,340.2z M258.8,339.6
					l-0.1-1.4l5.6-0.3l0.1,1.4L258.8,339.6z M270.1,339l-0.1-1.4l5.6-0.3l0.1,1.4L270.1,339z M281.4,338.4l-0.1-1.4l5.6-0.3l0.1,1.4
					L281.4,338.4z M292.7,337.8l-0.1-1.4l5.6-0.3l0.1,1.4L292.7,337.8z M303.9,337.2l-0.1-1.4l5.6-0.3l0.1,1.4L303.9,337.2z
					 M315.2,336.6l-0.1-1.4l5.6-0.3l0.1,1.4L315.2,336.6z M326.5,336l-0.1-1.4l5.6-0.3l0.1,1.4L326.5,336z M337.8,335.4l-0.1-1.4
					l5.6-0.3l0.1,1.4L337.8,335.4z M349.1,334.8l-0.1-1.4l5.6-0.3l0.1,1.4L349.1,334.8z M360.4,334.2l-0.1-1.4l5.6-0.3l0.1,1.4
					L360.4,334.2z M371.6,333.6l-0.1-1.4l5.6-0.3l0.1,1.4L371.6,333.6z M382.9,333l-0.1-1.4l5.6-0.3l0.1,1.4L382.9,333z
					 M532.8,332.9c-1.3-1.3-2.7-2.5-4.2-3.5l0.8-1.2c1.6,1,3.1,2.3,4.5,3.7L532.8,332.9z M394.2,332.4l-0.1-1.4l5.6-0.3l0.1,1.4
					L394.2,332.4z M405.5,331.8l-0.1-1.4l5.6-0.3l0.1,1.4L405.5,331.8z M416.8,331.2l-0.1-1.4l5.6-0.3l0.1,1.4L416.8,331.2z
					 M428.1,330.6l-0.1-1.4l5.6-0.3l0.1,1.4L428.1,330.6z M439.4,330l-0.1-1.4l5.6-0.3l0.1,1.4L439.4,330z M450.6,329.4l-0.1-1.4
					l5.6-0.3l0.1,1.4L450.6,329.4z M461.9,328.8l-0.1-1.4l5.6-0.3l0.1,1.4L461.9,328.8z M473.2,328.2l-0.1-1.4l5.6-0.3l0.1,1.4
					L473.2,328.2z M484.5,327.6l-0.1-1.4l5.6-0.3l0.1,1.4L484.5,327.6z M523.6,327.1c-1.7-0.6-3.5-1-5.4-1.1l0.1-1.4
					c1.9,0.2,3.8,0.6,5.7,1.2L523.6,327.1z M495.8,327l-0.1-1.4l5.6-0.3l0.1,1.4L495.8,327z M507.1,326.4L507,325l5.6-0.3l0.1,1.4
					L507.1,326.4z"/>
			</g>
		</g>
	</g>
	<g>
		<path class="st2" d="M139.5,207.8c1.3-9.5-5.5-24-22.9-15.5c-25.2,12.3-3.2,16.5,0.8,7.8c5.1-11.3-25.9-38.6-59.8-12.6"/>
		<path class="st3" d="M555.7,320.3c7.8,9.6,27.4,16.1,34.9-7.9c10.7-34.7-12.8-17.6-8.1-6.1c6.1,14.8,59.3,9.8,64.8-45.2"/>
		<g>
			<g>
				<g>
					<g>
						<g>
							<path class="st4" d="M682.2,188c0.4,0.4,1.1,0.4,1.5,0l2.3-2.3c0.4-0.4,0.4-1.1,0-1.5l-7.2-7.2c-0.4-0.4-1.1-0.4-1.5,0
								l-2.3,2.3c-0.4,0.4-0.4,1.1,0,1.5L682.2,188z"/>
							<path class="st4" d="M669,194.1c0.4,0.4,1.1,0.4,1.5,0l2.3-2.3c0.4-0.4,0.4-1.1,0-1.5l-7.2-7.2c-0.4-0.4-1.1-0.4-1.5,0
								l-2.3,2.3c-0.4,0.4-0.4,1.1,0,1.5L669,194.1z"/>
						</g>
						<g>
							<path class="st0" d="M647,196.2c-1,0.4-1.1,1.3-0.4,2l18.5,18.5c0.7,0.7,2,0.8,2.8,0.2l41.3-32.5c0.8-0.6,0.7-1.6-0.2-2
								l-10.6-5.5c-0.9-0.5-2.5-0.6-3.4-0.2L647,196.2z"/>
							<path class="st5" d="M698.3,176.9c-0.9-0.5-2.5-0.6-3.4-0.2l-48,19.5c-1,0.4-1.1,1.3-0.4,2l1.9,1.9c2.7-0.8,5.8-2.2,9.3-4.3
								c15.6-9.4,27.7,7.1,28.2,6.7l23.1-18.2c0.8-0.6,0.7-1.6-0.2-2L698.3,176.9z"/>
						</g>
					</g>
					<g>
						<g>
							<path class="st4" d="M628.3,241.9c0.4,0.4,0.4,1.1,0,1.5l-2.3,2.3c-0.4,0.4-1.1,0.4-1.5,0l-7.2-7.2c-0.4-0.4-0.4-1.1,0-1.5
								l2.3-2.3c0.4-0.4,1.1-0.4,1.5,0L628.3,241.9z"/>
							<path class="st4" d="M634.4,228.7c0.4,0.4,0.4,1.1,0,1.5l-2.3,2.3c-0.4,0.4-1.1,0.4-1.5,0l-7.2-7.2c-0.4-0.4-0.4-1.1,0-1.5
								l2.3-2.3c0.4-0.4,1.1-0.4,1.5,0L634.4,228.7z"/>
						</g>
						<path class="st0" d="M636.5,206.7c0.4-1,1.3-1.1,2-0.4l18.5,18.5c0.7,0.7,0.8,2,0.2,2.8l-32.5,41.3c-0.6,0.8-1.6,0.7-2-0.2
							l-5.5-10.6c-0.5-0.9-0.6-2.5-0.2-3.4L636.5,206.7z"/>
					</g>
				</g>
				<line class="st6" x1="628.9" y1="258.3" x2="646.5" y2="233.2"/>
			</g>
			<g>
				<g>
					<g>
						<g>
							<path class="st0" d="M674.9,228.7c-0.5,0.2-0.6,0.7-0.2,1.1l10.3,10.3c0.4,0.4,1.1,0.5,1.6,0.1l23.1-18.2
								c0.5-0.4,0.4-0.9-0.1-1.1l-5.9-3.1c-0.5-0.3-1.4-0.3-1.9-0.1L674.9,228.7z"/>
						</g>
						<path class="st5" d="M703.6,217.9c-0.5-0.3-1.4-0.3-1.9-0.1l-26.9,10.9c-0.5,0.2-0.6,0.7-0.2,1.1l1.9,1.9
							c3.5-0.1,6.9-0.7,9.2-2.3c6.9-4.7,13.3,1,13.3,1l0,0l10.6-8.4c0.5-0.4,0.4-0.9-0.1-1.1L703.6,217.9z"/>
					</g>
					<g>
						<path class="st0" d="M669,234.6c0.2-0.5,0.7-0.6,1.1-0.2l10.3,10.3c0.4,0.4,0.5,1.1,0.1,1.6l-18.2,23.1
							c-0.4,0.5-0.9,0.4-1.1-0.1l-3.1-5.9c-0.3-0.5-0.3-1.4-0.1-1.9L669,234.6z"/>
					</g>
				</g>
				<line class="st6" x1="665.3" y1="262.1" x2="673.3" y2="250.5"/>
			</g>
			<g>
				<path class="st4" d="M619.1,175.1c1.4,1.4,1.7,3.4,0.7,4.4c-1,1-3,0.7-4.4-0.7c-1.4-1.4-1.7-3.4-0.7-4.4
					C615.7,173.4,617.7,173.7,619.1,175.1z"/>
				<g>
					<g>
						<g>
							<path class="st7" d="M666.9,198c6.2,7.5,30.7,39.7,20.9,49.5c-9.8,9.8-41.8-14.6-49.5-20.9c-10.2-8.4-37.6-35.5-22.3-50.9
								C631.3,160.4,658.4,187.8,666.9,198z"/>
							<path class="st8" d="M616.6,175.2c19.9-11.1,67.6,57.4,57.4,73.3c4.6,1.7,10.7,2.2,13.8-0.9c9.8-10-14.7-42-20.9-49.5
								C658.3,187.5,632.7,161.4,616.6,175.2z"/>
						</g>
					</g>
					<path class="st4" d="M692,248.3c0.6,0.6,0.6,1.7,0,2.3l-1.1,1.1c-0.6,0.6-1.7,0.6-2.3,0l-18.4-18.4c-0.6-0.6-0.6-1.7,0-2.3
						l1.1-1.1c0.6-0.6,1.7-0.6,2.3,0L692,248.3z"/>
					<path class="st9" d="M635.4,179.9c-2.6-0.3-6.7,1.4-10.3,4.9c-3.8,4-5.2,7.7-4.9,10.3c0.3,2.6,2.5,5.9,3.6,2.6
						c1.2-3.3,6-8.2,6-8.2s4.9-4.8,8.2-6C641.3,182.4,638.1,180.2,635.4,179.9z"/>
					<path class="st10" d="M624.4,204.7c0,0,18.6,23.6,45.4,35.6"/>
				</g>
			</g>
		</g>
	</g>
</g>
<text transform="matrix(0.9986 -5.303959e-02 5.304012e-02 0.9986 119.1112 402.468)"><tspan x="0" y="0" class="st1 st11 st12">SAVE up to </tspan><tspan x="322.2" y="0" class="st13 st14 st12">50%</tspan></text>
<text transform="matrix(1 0 0 1 11 300.2861)"><tspan x="0" y="0" class="st7 st15 st16 st17">Let</tspan><tspan x="166.7" y="0" class="st0 st15 st16 st17">’</tspan><tspan x="185" y="0" class="st7 st15 st16 st17">s</tspan><tspan x="238.9" y="0" class="st18 st15 st16 st17"> </tspan><tspan x="266" y="0" class="st19 st15 st16 st17">Travel</tspan></text>
</svg>
